<svg width="197" height="72" viewBox="0 0 197 72" fill="none" xmlns="http://www.w3.org/2000/svg">
<g filter="url(#filter0_d_955_1734)">
<path d="M34.9857 47.5789L23.7014 22.0211C23.3927 21.3474 23.0839 20.7719 22.7751 20.2947C22.4664 19.7895 22.1716 19.3825 21.8909 19.0737C21.5821 18.6807 21.2734 18.3579 20.9646 18.1053H26.733C26.5646 18.3579 26.4523 18.6807 26.3962 19.0737C26.34 19.3825 26.34 19.7895 26.3962 20.2947C26.4523 20.7719 26.6348 21.3474 26.9435 22.0211L37.6383 46.2316C37.6944 45.2491 37.7786 43.8737 37.8909 42.1053C38.0313 40.3088 38.2137 38.3579 38.4383 36.2526C38.6909 34.1193 38.9997 31.9579 39.3646 29.7684C39.7295 27.5789 40.1646 25.586 40.6699 23.7895C41.2032 21.993 41.8067 20.5333 42.4804 19.4105C43.1821 18.2596 43.9821 17.6842 44.8804 17.6842C45.9471 17.6842 46.9014 18.2596 47.7435 19.4105C48.5857 20.5614 49.3295 22.0351 49.9751 23.8316C50.6488 25.6281 51.2242 27.6351 51.7014 29.8526C52.1786 32.0421 52.5857 34.2035 52.9225 36.3368C53.2593 38.4421 53.526 40.393 53.7225 42.1895C53.919 43.9579 54.0593 45.3193 54.1435 46.2737L64.8383 22.0211C65.1471 21.3474 65.3295 20.7719 65.3857 20.2947C65.4418 19.7895 65.4418 19.3825 65.3857 19.0737C65.3295 18.6807 65.2172 18.3579 65.0488 18.1053H68.2488C67.94 18.3579 67.6313 18.6807 67.3225 19.0737C67.0418 19.3825 66.7471 19.7895 66.4383 20.2947C66.1295 20.7719 65.8207 21.3474 65.512 22.0211L54.2278 47.5789H51.4067C50.8734 42.5544 50.2418 38.0491 49.512 34.0632C49.2313 32.3789 48.8944 30.7368 48.5014 29.1368C48.1365 27.5088 47.7435 26.0632 47.3225 24.8C46.9014 23.5368 46.4383 22.5263 45.933 21.7684C45.4558 20.9825 44.9506 20.5895 44.4172 20.5895C43.7435 20.5895 43.14 20.9825 42.6067 21.7684C42.1014 22.5263 41.6383 23.5368 41.2172 24.8C40.7962 26.0632 40.4313 27.5088 40.1225 29.1368C39.8137 30.7368 39.5471 32.3789 39.3225 34.0632C38.8172 38.0491 38.4523 42.5544 38.2278 47.5789H34.9857Z" fill="white"/>
<path d="M69.2837 20.3368C69.2837 19.8035 69.2135 19.3544 69.0731 18.9895C68.9609 18.5965 68.8205 18.2737 68.6521 18.0211C68.4556 17.7123 68.2451 17.4596 68.0205 17.2632L73.4942 16C73.2696 16.2246 73.0591 16.5193 72.8626 16.8842C72.7223 17.193 72.5819 17.6 72.4416 18.1053C72.3012 18.5825 72.231 19.186 72.231 19.9158V33.0947C72.5117 32.3368 72.8907 31.5509 73.3679 30.7368C73.8732 29.8947 74.5047 29.1368 75.2626 28.4632C76.0486 27.7895 76.9609 27.2281 77.9995 26.7789C79.0661 26.3298 80.2872 26.1053 81.6626 26.1053C82.4486 26.1053 83.3047 26.2175 84.231 26.4421C85.1854 26.6667 86.0696 27.1158 86.8837 27.7895C87.7258 28.4351 88.4275 29.3754 88.9889 30.6105C89.5503 31.8175 89.831 33.4316 89.831 35.4526V43.6632C89.831 44.393 89.9012 45.0105 90.0416 45.5158C90.1819 45.993 90.3223 46.386 90.4626 46.6947C90.6591 47.0597 90.8696 47.3544 91.0942 47.5789H85.6205C85.8451 47.3544 86.0556 47.0597 86.2521 46.6947C86.4205 46.386 86.5609 45.993 86.6731 45.5158C86.8135 45.0105 86.8837 44.393 86.8837 43.6632V35.4526C86.8837 33.7404 86.7153 32.3228 86.3784 31.2C86.0696 30.0772 85.6626 29.193 85.1574 28.5474C84.6521 27.8737 84.0907 27.4105 83.4731 27.1579C82.8556 26.8772 82.2521 26.7368 81.6626 26.7368C79.9503 26.7368 78.5047 27.1018 77.3258 27.8316C76.1468 28.5333 75.1784 29.3754 74.4205 30.3579C73.6907 31.3404 73.1574 32.3228 72.8205 33.3053C72.4837 34.2877 72.2872 35.0597 72.231 35.6211V43.6632C72.231 44.393 72.3012 45.0105 72.4416 45.5158C72.5819 45.993 72.7223 46.386 72.8626 46.6947C73.0591 47.0597 73.2696 47.3544 73.4942 47.5789H68.0205C68.2451 47.3544 68.4556 47.0597 68.6521 46.6947C68.8205 46.386 68.9609 45.993 69.0731 45.5158C69.2135 45.0105 69.2837 44.393 69.2837 43.6632V20.3368Z" fill="white"/>
<path d="M92.8695 19.4947C92.8695 18.9333 93.0379 18.4982 93.3748 18.1895C93.7397 17.8526 94.1748 17.6842 94.6801 17.6842C95.2134 17.6842 95.6485 17.8526 95.9853 18.1895C96.3222 18.4982 96.4906 18.9333 96.4906 19.4947C96.4906 20.0561 96.3222 20.5193 95.9853 20.8842C95.6485 21.2211 95.2134 21.3895 94.6801 21.3895C94.1748 21.3895 93.7397 21.2211 93.3748 20.8842C93.0379 20.5193 92.8695 20.0561 92.8695 19.4947ZM93.2064 30.8632C93.2064 30.3298 93.1362 29.8807 92.9958 29.5158C92.8836 29.1228 92.7432 28.8 92.5748 28.5474C92.3783 28.2386 92.1678 27.986 91.9432 27.7895L97.4169 26.5263C97.1923 26.7509 96.9818 27.0456 96.7853 27.4105C96.645 27.7193 96.5046 28.1263 96.3643 28.6316C96.2239 29.1088 96.1537 29.7123 96.1537 30.4421V43.6632C96.1537 44.393 96.2239 45.0105 96.3643 45.5158C96.5046 45.993 96.645 46.386 96.7853 46.6947C96.9818 47.0597 97.1923 47.3544 97.4169 47.5789H91.9432C92.1678 47.3544 92.3783 47.0597 92.5748 46.6947C92.7432 46.386 92.8836 45.993 92.9958 45.5158C93.1362 45.0105 93.2064 44.393 93.2064 43.6632V30.8632Z" fill="white"/>
<path d="M99.5304 20.3368C99.5304 19.8035 99.4602 19.3544 99.3199 18.9895C99.2076 18.5965 99.0672 18.2737 98.8988 18.0211C98.7023 17.7123 98.4918 17.4596 98.2672 17.2632L103.741 16C103.516 16.2246 103.306 16.5193 103.109 16.8842C102.969 17.193 102.829 17.6 102.688 18.1053C102.548 18.5825 102.478 19.186 102.478 19.9158V43.6632C102.478 44.393 102.548 45.0105 102.688 45.5158C102.829 45.993 102.969 46.386 103.109 46.6947C103.306 47.0597 103.516 47.3544 103.741 47.5789H98.2672C98.4918 47.3544 98.7023 47.0597 98.8988 46.6947C99.0672 46.386 99.2076 45.993 99.3199 45.5158C99.4602 45.0105 99.5304 44.393 99.5304 43.6632V20.3368Z" fill="white"/>
<path d="M122.654 40.7579C122.009 43.1439 120.914 44.9544 119.37 46.1895C117.826 47.3965 115.749 48 113.139 48C110.5 48 108.423 47.4807 106.907 46.4421C105.391 45.4035 104.633 43.9719 104.633 42.1474C104.633 40.9123 104.928 39.8877 105.518 39.0737C106.135 38.2316 106.893 37.5439 107.791 37.0105C108.718 36.4491 109.714 36 110.781 35.6632C111.847 35.3263 112.83 35.0456 113.728 34.8211C114.654 34.5965 115.412 34.4 116.002 34.2316C116.619 34.0351 116.928 33.8246 116.928 33.6C116.928 33.2632 116.689 33.0947 116.212 33.0947C115.904 33.0947 115.496 33.1509 114.991 33.2632C114.514 33.3754 113.981 33.5018 113.391 33.6421C112.83 33.7544 112.212 33.8667 111.539 33.9789C110.893 34.0912 110.247 34.1474 109.602 34.1474C109.097 34.1474 108.605 34.1193 108.128 34.0632C107.651 34.007 107.23 33.8947 106.865 33.7263C106.5 33.5579 106.205 33.3333 105.981 33.0526C105.784 32.7439 105.686 32.3649 105.686 31.9158C105.686 30.9053 105.953 30.0351 106.486 29.3053C107.047 28.5754 107.791 27.9719 108.718 27.4947C109.644 27.0175 110.711 26.6667 111.918 26.4421C113.125 26.2175 114.374 26.1053 115.665 26.1053C117.237 26.1053 118.64 26.2456 119.875 26.5263C121.111 26.807 122.149 27.2982 122.991 28C123.833 28.6737 124.479 29.6 124.928 30.7789C125.377 31.9298 125.602 33.3754 125.602 35.1158V43.6632C125.602 44.393 125.658 45.0105 125.77 45.5158C125.911 45.993 126.065 46.386 126.233 46.6947C126.402 47.0597 126.598 47.3544 126.823 47.5789C126.374 47.5789 125.896 47.5368 125.391 47.4526C124.914 47.3404 124.465 47.186 124.044 46.9895C123.651 46.7649 123.314 46.4842 123.033 46.1474C122.781 45.8105 122.654 45.4175 122.654 44.9684V40.7579ZM108.423 31.2C108.423 31.9579 108.549 32.5333 108.802 32.9263C109.054 33.3193 109.532 33.5158 110.233 33.5158C110.795 33.5158 111.44 33.4035 112.17 33.1789C112.928 32.9263 113.7 32.6737 114.486 32.4211C115.272 32.1404 116.044 31.8877 116.802 31.6632C117.56 31.4105 118.219 31.2842 118.781 31.2842C119.286 31.2842 119.693 31.4105 120.002 31.6632C120.311 31.9158 120.465 32.3649 120.465 33.0105C120.465 33.8246 120.142 34.386 119.497 34.6947C118.879 35.0035 118.093 35.214 117.139 35.3263C116.184 35.4386 115.146 35.5368 114.023 35.6211C112.9 35.7053 111.861 35.9439 110.907 36.3368C109.953 36.7298 109.153 37.3474 108.507 38.1895C107.889 39.0316 107.581 40.2807 107.581 41.9368C107.581 43.7333 108.044 45.0947 108.97 46.0211C109.925 46.9193 111.314 47.3684 113.139 47.3684C114.907 47.3684 116.395 47.0737 117.602 46.4842C118.809 45.8947 119.791 45.0667 120.549 44C121.307 42.9053 121.84 41.614 122.149 40.1263C122.486 38.6105 122.654 36.9404 122.654 35.1158C122.654 33.6842 122.542 32.4491 122.318 31.4105C122.121 30.3439 121.756 29.4737 121.223 28.8C120.718 28.0982 120.016 27.5789 119.118 27.2421C118.219 26.9053 117.068 26.7368 115.665 26.7368C114.065 26.7368 112.788 26.9333 111.833 27.3263C110.879 27.6912 110.149 28.1263 109.644 28.6316C109.139 29.1088 108.802 29.6 108.633 30.1053C108.493 30.5825 108.423 30.9474 108.423 31.2Z" fill="white"/>
<path d="M131.861 44.9684C131.861 45.4175 131.721 45.8105 131.44 46.1474C131.187 46.4842 130.85 46.7649 130.429 46.9895C130.036 47.186 129.601 47.3404 129.124 47.4526C128.647 47.5368 128.184 47.5789 127.735 47.5789C127.959 47.3544 128.156 47.0597 128.324 46.6947C128.493 46.386 128.633 45.993 128.745 45.5158C128.886 45.0105 128.942 44.393 128.914 43.6632V20.3368C128.914 19.8035 128.843 19.3544 128.703 18.9895C128.591 18.5965 128.45 18.2737 128.282 18.0211C128.086 17.7123 127.875 17.4596 127.65 17.2632L133.124 16C132.9 16.2246 132.689 16.5193 132.493 16.8842C132.352 17.193 132.212 17.6 132.072 18.1053C131.931 18.5825 131.861 19.186 131.861 19.9158V29.9789C132.114 29.5018 132.45 29.0386 132.872 28.5895C133.321 28.1123 133.84 27.6912 134.429 27.3263C135.047 26.9614 135.749 26.6667 136.535 26.4421C137.321 26.2175 138.205 26.1053 139.187 26.1053C140.507 26.1053 141.77 26.3298 142.977 26.7789C144.212 27.2281 145.307 27.9018 146.261 28.8C147.243 29.6982 148.015 30.8211 148.577 32.1684C149.166 33.4877 149.461 35.0456 149.461 36.8421C149.461 38.7509 149.152 40.407 148.535 41.8105C147.945 43.214 147.173 44.3789 146.219 45.3053C145.293 46.2035 144.254 46.8772 143.103 47.3263C141.98 47.7754 140.9 48 139.861 48C138.036 48 136.408 47.3684 134.977 46.1053C133.545 44.814 132.507 42.9193 131.861 40.4211V44.9684ZM131.861 35.1158C131.861 36.9404 132.043 38.6105 132.408 40.1263C132.773 41.614 133.307 42.9053 134.008 44C134.71 45.0667 135.552 45.8947 136.535 46.4842C137.517 47.0737 138.626 47.3684 139.861 47.3684C140.675 47.3684 141.475 47.1579 142.261 46.7368C143.047 46.3158 143.749 45.6842 144.366 44.8421C145.012 43.9719 145.531 42.8772 145.924 41.5579C146.317 40.2105 146.514 38.6386 146.514 36.8421C146.514 35.3544 146.331 33.993 145.966 32.7579C145.629 31.5228 145.138 30.4702 144.493 29.6C143.875 28.7018 143.117 28 142.219 27.4947C141.321 26.9895 140.31 26.7368 139.187 26.7368C137.952 26.7368 136.872 26.9333 135.945 27.3263C135.019 27.6912 134.247 28.1544 133.629 28.7158C133.04 29.2772 132.591 29.8807 132.282 30.5263C132.001 31.1439 131.861 31.6912 131.861 32.1684V35.1158Z" fill="white"/>
<path d="M161.246 26.1053C163.997 26.1053 166.088 26.6105 167.52 27.6211C168.979 28.6316 169.709 30.0351 169.709 31.8316C169.709 33.1789 169.414 34.3298 168.825 35.2842C168.263 36.2105 167.52 36.9684 166.593 37.5579C165.667 38.1474 164.614 38.5684 163.435 38.8211C162.284 39.0737 161.12 39.2 159.941 39.2C158.509 39.2 157.162 39.0456 155.898 38.7368C154.635 38.4281 153.625 38.007 152.867 37.4737C153.148 38.5965 153.597 39.7193 154.214 40.8421C154.832 41.9649 155.576 42.9754 156.446 43.8737C157.344 44.7719 158.341 45.5018 159.435 46.0632C160.558 46.5965 161.737 46.8632 162.972 46.8632C164.095 46.8632 165.176 46.5965 166.214 46.0632C167.253 45.5298 168.067 44.786 168.656 43.8316C168.376 44.6175 167.913 45.3053 167.267 45.8947C166.734 46.4281 165.99 46.9193 165.035 47.3684C164.081 47.7895 162.818 48 161.246 48C159.702 48 158.256 47.7333 156.909 47.2C155.59 46.6386 154.439 45.8807 153.456 44.9263C152.474 43.9439 151.702 42.7789 151.141 41.4316C150.579 40.0842 150.298 38.6246 150.298 37.0526C150.298 35.4807 150.579 34.0211 151.141 32.6737C151.702 31.3263 152.474 30.1754 153.456 29.2211C154.439 28.2386 155.59 27.4807 156.909 26.9474C158.256 26.386 159.702 26.1053 161.246 26.1053ZM152.825 37.3053C154.004 37.614 155.435 37.7684 157.12 37.7684C158.214 37.7684 159.337 37.6842 160.488 37.5158C161.639 37.3193 162.677 36.9965 163.604 36.5474C164.53 36.0702 165.288 35.4526 165.877 34.6947C166.467 33.9088 166.762 32.9404 166.762 31.7895C166.762 30.8912 166.607 30.1193 166.298 29.4737C165.99 28.8281 165.583 28.3088 165.077 27.9158C164.572 27.5228 163.983 27.2421 163.309 27.0737C162.635 26.8772 161.934 26.7789 161.204 26.7789C160.305 26.7789 159.407 26.9053 158.509 27.1579C157.639 27.3825 156.839 27.7053 156.109 28.1263C154.621 28.9684 153.583 30.2316 152.993 31.9158C152.432 33.5719 152.376 35.3684 152.825 37.3053Z" fill="white"/>
<path d="M171.825 20.3368C171.825 19.8035 171.755 19.3544 171.614 18.9895C171.502 18.5965 171.362 18.2737 171.193 18.0211C170.997 17.7123 170.786 17.4596 170.562 17.2632L176.035 16C175.811 16.2246 175.6 16.5193 175.404 16.8842C175.263 17.193 175.123 17.6 174.983 18.1053C174.842 18.5825 174.772 19.186 174.772 19.9158V43.6632C174.772 44.393 174.842 45.0105 174.983 45.5158C175.123 45.993 175.263 46.386 175.404 46.6947C175.6 47.0597 175.811 47.3544 176.035 47.5789H170.562C170.786 47.3544 170.997 47.0597 171.193 46.6947C171.362 46.386 171.502 45.993 171.614 45.5158C171.755 45.0105 171.825 44.393 171.825 43.6632V20.3368Z" fill="white"/>
</g>
<defs>
<filter id="filter0_d_955_1734" x="0.9646" y="0" width="195.071" height="72" filterUnits="userSpaceOnUse" color-interpolation-filters="sRGB">
<feFlood flood-opacity="0" result="BackgroundImageFix"/>
<feColorMatrix in="SourceAlpha" type="matrix" values="0 0 0 0 0 0 0 0 0 0 0 0 0 0 0 0 0 0 127 0" result="hardAlpha"/>
<feOffset dy="4"/>
<feGaussianBlur stdDeviation="10"/>
<feComposite in2="hardAlpha" operator="out"/>
<feColorMatrix type="matrix" values="0 0 0 0 0 0 0 0 0 0 0 0 0 0 0 0 0 0 0.2 0"/>
<feBlend mode="normal" in2="BackgroundImageFix" result="effect1_dropShadow_955_1734"/>
<feBlend mode="normal" in="SourceGraphic" in2="effect1_dropShadow_955_1734" result="shape"/>
</filter>
</defs>
</svg>
